# xmcd
#
# Track frame offsets:
#	150
#	21112
#	39280
#
# Disc length: 789 seconds
#
# Revision: 0
# Processed by: cddbd v1.5.1PL0 Copyright (c) Steve Scherf et al.
# Submitted via: audiograbber 1.83.01
#
DISCID=17031303
DTITLE=Jeff Healey - I Think Maxi
DYEAR=1990
DGENRE=Blues
TTITLE0=I Think I Love Too Much
TTITLE1=Something To Hold On To
TTITLE2=I´m Tore Down
EXTD=
EXTT0=
EXTT1=
EXTT2=
PLAYORDER=
